<?xml version="1.0" encoding="utf-8"?>
<svg xmlns="http://www.w3.org/2000/svg" id="Layer_1" data-name="Layer 1" viewBox="162.88 184.792 264.407 240.303">
  <defs>
    <clipPath id="clippath">
      <path d="M236.16 235.73c-5.88.66-10.63 5.42-11.28 11.3-.52 4.65 1.45 8.86 4.74 11.49 3.12 2.5 5.06 6.19 5.06 10.19v1.01c0 4-1.94 7.68-5.06 10.18a12.811 12.811 0 0 0-4.74 11.48c.65 5.89 5.41 10.66 11.3 11.31 7.76.86 14.33-5.19 14.33-12.78 0-4.05-1.87-7.65-4.8-10.01-3.13-2.52-5.07-6.22-5.07-10.23v-1.01c0-3.98 1.93-7.65 5.04-10.14.73-.58 1.39-1.24 1.98-1.97 2.51-3.1 6.19-5.03 10.17-5.03h.04c3.82 0 7.32 1.88 9.68 4.89.64.81 1.37 1.55 2.18 2.18 3.01 2.36 4.89 5.86 4.89 9.68v1.46c0 3.99-1.93 7.68-5.04 10.18a12.82 12.82 0 0 0-4.7 11.48c.66 5.87 5.41 10.62 11.29 11.28 4.78.54 9.1-1.55 11.71-5 2.27-2.99 5.81-4.74 9.56-4.74h.42c3.82 0 7.32 1.88 9.68 4.89.63.81 1.37 1.55 2.18 2.18 3 2.36 4.89 5.86 4.89 9.68v1.46c0 3.91-1.75 7.63-4.84 10.02-1.11.86-2.07 1.89-2.85 3.07-2.05 3.08-5.6 4.82-9.3 4.82s-7.23-1.79-9.28-4.87c-2.52-3.77-6.98-6.14-11.96-5.66-5.97.57-10.84 5.36-11.5 11.32-.86 7.76 5.19 14.33 12.77 14.33 4.07 0 7.7-1.89 10.05-4.85 2.11-2.65 5.22-4.32 8.61-4.32h2.41c3.4 0 6.68 1.47 8.76 4.16a12.84 12.84 0 0 0 11.13 4.96c6.09-.44 11.13-5.27 11.81-11.34.52-4.63-1.43-8.83-4.7-11.47-3.11-2.51-5.04-6.19-5.04-10.18v-1.07c0-4 1.93-7.68 5.04-10.19 3.27-2.64 5.22-6.84 4.7-11.47-.66-5.88-5.41-10.63-11.28-11.29-4.78-.54-9.1 1.55-11.72 5a12.002 12.002 0 0 1-9.56 4.74h-.41c-3.82 0-7.32-1.88-9.68-4.89-.64-.81-1.37-1.54-2.18-2.18-3.01-2.36-4.89-5.87-4.89-9.68v-1.46c0-3.99 1.93-7.68 5.04-10.18 3.27-2.64 5.21-6.84 4.69-11.48-.66-5.88-5.41-10.63-11.29-11.29-.5-.06-1-.08-1.49-.08-4.1 0-7.75 1.92-10.1 4.92-2.39 3.06-6.01 4.9-9.9 4.9s-7.5-1.84-9.9-4.9c-2.35-2.99-6-4.92-10.1-4.92-.49 0-.99.03-1.49.08" style="fill:none"/>
    </clipPath>
    <style>.cls-1{fill:#22489a}.cls-2{fill:#32b24b}</style>
  </defs>
  <path d="M185.08 373.86v4.43h-13.67v-.99l6.4-11.85h-5.98v-4.43h12.96v1.08l-6.37 11.76h6.66zM204.64 361.02v17.27h-4.8v-6.63h-5.18v6.63h-4.8v-17.27h4.8v6.23h5.18v-6.23h4.8zM226.34 369.64c0 5.04-3.7 8.65-8.91 8.65h-6.99v-17.27h6.99c5.23 0 8.91 3.57 8.91 8.62m-4.88 0c0-2.56-1.7-4.26-4.26-4.26h-1.98v8.55h1.98c2.56 0 4.26-1.74 4.26-4.29M238.2 369.67c0-5.19 3.93-9.08 9.18-9.08 4.53 0 8.03 2.99 8.73 7.36h-4.82c-.59-1.77-2.08-2.92-3.9-2.92-2.44 0-4.24 1.97-4.24 4.64s1.8 4.6 4.24 4.6c1.92 0 3.42-1.25 3.91-3.17h4.87c-.66 4.54-4.18 7.62-8.78 7.62-5.26 0-9.18-3.89-9.18-9.05M260.01 369.66c0-5.28 3.96-9.07 9.51-9.07s9.48 3.78 9.48 9.07-3.95 9.07-9.48 9.07-9.51-3.79-9.51-9.07m14.04 0c0-2.7-1.9-4.64-4.53-4.64s-4.56 1.96-4.56 4.64 1.93 4.64 4.56 4.64 4.53-1.94 4.53-4.64M299.31 361.02v17.27h-3.93l-6.86-9.37v9.37h-4.61v-17.27h4.16l6.63 9.06v-9.06h4.61zM304.29 372.72h4.91c0 1.23.95 1.83 2.04 1.83 1 0 1.95-.53 1.95-1.47 0-1.08-1.34-1.4-2.99-1.8-2.49-.62-5.68-1.38-5.68-5.32 0-3.4 2.5-5.35 6.57-5.35s6.51 2.12 6.51 5.64h-4.77c0-1.1-.81-1.61-1.8-1.61-.85 0-1.66.37-1.66 1.17 0 .98 1.3 1.3 2.93 1.71 2.54.66 5.87 1.51 5.87 5.45s-2.9 5.73-6.91 5.73c-4.23 0-6.96-2.23-6.96-6M322.93 371.61v-10.59h4.86v10.5c0 1.69 1.09 2.78 2.67 2.78s2.68-1.09 2.68-2.78v-10.5h4.87v10.59c0 4.25-3.14 7.12-7.54 7.12s-7.54-2.87-7.54-7.12M354.6 373.94v4.35h-10.96v-17.27h4.82v12.92h6.14zM370.01 365.31h-4.69v12.98h-4.78v-12.98h-4.69v-4.29h14.16v4.29zM374.6 361.02h4.82v17.27h-4.82zM400.64 361.02v17.27h-3.93l-6.86-9.37v9.37h-4.61v-17.27h4.16l6.63 9.06v-9.06h4.61zM423.86 369.06c0 5.65-3.69 9.67-9.1 9.67s-9.2-3.8-9.2-9.06 3.84-9.09 9.16-9.09c4.52 0 8.23 2.83 8.96 6.85h-4.98c-.63-1.45-2.17-2.39-3.93-2.39-2.59 0-4.33 1.87-4.33 4.63s1.71 4.6 4.33 4.6c1.81 0 3.37-.88 3.92-2.21h-4.29v-3h9.47ZM209.83 398.66h-1.15l-.96-2.16.06-.11h-4.91l.06.11-.95 2.16h-1.15l3.95-8.98h1.12l3.95 8.98Zm-2.53-3.27-.11-.11-1.58-3.6-.27-.9h-.02l-.28.9-1.59 3.6-.11.11h3.96ZM217.13 398.66h-1.02v-4.24c0-1.11-.34-1.88-1.95-1.88-1.17 0-2.14.65-2.14 1.97v4.15H211v-6.99h1.02v.88h.02c.48-.6 1.33-.99 2.23-.99 1.84 0 2.86.94 2.86 2.64v4.46Z" class="cls-1"/>
  <path d="M227.8 398.78c-3.19 0-4.9-1.9-4.9-4.56s1.7-4.65 4.9-4.65 4.91 2 4.91 4.65-1.76 4.56-4.91 4.56m.01-7.08c-1.72 0-2.43 1-2.43 2.52s.7 2.43 2.43 2.43 2.42-.95 2.42-2.43-.7-2.52-2.42-2.52M243.28 394.51c0 2.67-1.46 4.27-4.5 4.27s-4.51-1.58-4.51-4.27v-4.82h2.45v4.81c0 1.49.53 2.16 2.06 2.16s2.05-.67 2.05-2.16v-4.81h2.45v4.82ZM253.11 391.8h-3.23l.12.22v6.64h-2.45v-6.64l.14-.22h-3.24v-2.12h8.66v2.12zM258.41 398.78c-1.73 0-3.27-.51-4.52-1.63l1.66-1.66c.8.75 2.05 1.17 3.05 1.17 1.32 0 1.61-.33 1.61-.62 0-.15-.08-.44-1.22-.7-.19-.05-1.45-.35-1.66-.39-1.56-.38-3.24-.99-3.24-2.65s1.6-2.73 4.19-2.73c1.76 0 3.18.59 4.27 1.6l-1.64 1.64c-.66-.69-1.71-1.14-2.7-1.14-1.19 0-1.63.3-1.63.57 0 .23.24.35 1.65.7.19.06 1.23.3 1.44.34 1.93.44 3.03 1.46 3.03 2.75 0 1.5-1.42 2.75-4.28 2.75M268.76 398.78c-3.19 0-4.9-1.9-4.9-4.56s1.7-4.65 4.9-4.65 4.91 2 4.91 4.65-1.76 4.56-4.91 4.56m.01-7.08c-1.72 0-2.43 1-2.43 2.52s.7 2.43 2.43 2.43 2.42-.95 2.42-2.43-.7-2.52-2.42-2.52M284.24 394.51c0 2.67-1.46 4.27-4.5 4.27s-4.51-1.58-4.51-4.27v-4.82h2.45v4.81c0 1.49.53 2.16 2.06 2.16s2.05-.67 2.05-2.16v-4.81h2.45v4.82ZM295.68 398.66h-2.75l-1.31-2.38c-.3-.54-.71-.8-1.67-.8h-1.54l.22.22v2.96h-2.45v-8.98h4.63c2.39 0 3.71 1.02 3.71 2.8 0 .9-.63 1.76-1.5 2.16v.02c.34.13.68.44.89.84l1.76 3.16Zm-4.87-6.86h-2.41l.22.22v1.28l-.22.22h2.29c1.04 0 1.35-.35 1.35-.85s-.33-.87-1.23-.87M303.82 392.9c-.57-.8-1.35-1.19-2.3-1.19-1.83 0-2.68 1.03-2.68 2.51s.8 2.44 2.67 2.44c.96 0 1.76-.38 2.37-1.14l1.57 1.57c-1.03 1.09-2.39 1.7-4.01 1.7-3.3 0-5.09-1.88-5.09-4.57s1.82-4.64 5.08-4.64c1.73 0 2.96.52 4.04 1.69l-1.64 1.63ZM306.85 389.68h2.45v8.98h-2.45zM320.12 398.66h-2.01l-3.48-3.99-.81-1.17h-.02v5.16h-2.45v-8.98h1.99l3.53 3.99.78 1.11h.02v-5.1h2.45v8.98zM331.33 398.67h-2.12v-.64h-.02c-.39.37-1.45.74-2.4.74-3.18 0-5.07-1.79-5.07-4.52s1.93-4.68 5.14-4.68c1.64 0 3.02.57 3.85 1.42l-1.62 1.62c-.55-.6-1.27-.92-2.22-.92-1.84 0-2.66.9-2.66 2.56 0 1.56.78 2.41 2.6 2.41 1.23 0 1.96-.53 2.15-1.21l.2-.22h-3.09v-2.12h5.27v5.57Z" class="cls-2"/>
  <path d="M343.34 391.71c-.52-.7-1.33-1.14-2.55-1.14-2.35 0-3.33 1.65-3.33 3.66s.93 3.55 3.32 3.55c1.22 0 2.02-.43 2.55-1.13l.79.75c-.74.87-1.86 1.38-3.35 1.38-2.89 0-4.39-1.82-4.39-4.55s1.56-4.66 4.4-4.66c1.52 0 2.61.51 3.36 1.38l-.8.76ZM348.38 398.78c-2.2 0-3.29-1.51-3.29-3.61s1.1-3.6 3.29-3.6 3.3 1.5 3.3 3.6-1.12 3.61-3.3 3.61m0-6.23c-1.61 0-2.27 1.14-2.27 2.63s.67 2.63 2.28 2.63 2.27-1.15 2.27-2.63-.67-2.63-2.28-2.63M362.48 398.66h-1.02v-3.88c0-1.27-.14-2.24-1.44-2.24-1.11 0-1.63.91-1.62 1.92v4.2h-1.03v-4.15c0-1.14-.22-1.98-1.43-1.98-.94 0-1.62.82-1.62 1.94v4.19h-1.03v-6.99h1.03v.88h.01c.35-.59 1.04-.99 1.81-.99.91 0 1.61.53 1.95 1.22h.02c.44-.72 1.23-1.22 2.1-1.22 1.52 0 2.28 1 2.28 2.95v4.15ZM367.66 398.78c-.93 0-1.62-.28-2.19-.92h-.02V401h-1.02v-9.31h1.02v.85h.02c.46-.6 1.25-.96 2.19-.96 2.18 0 3.24 1.53 3.24 3.6s-1.03 3.61-3.24 3.61m-.03-6.23c-1.64 0-2.26 1.16-2.26 2.63s.61 2.63 2.25 2.63 2.26-1.14 2.26-2.63-.61-2.63-2.25-2.63M378.27 398.67h-1.02v-.62h-.02c-.61.54-1.46.74-2.26.74-1.41 0-2.85-.54-2.85-2.15 0-2.19 2.77-2.27 4.47-2.27.25 0 .64.02.78.04l-.11-.12v-.16c0-1.2-.88-1.58-1.92-1.58-.75 0-1.63.16-2.2.7l-.71-.7c.86-.72 1.8-.97 2.91-.97 1.49 0 2.94.59 2.94 2.54v4.55Zm-.91-3.37a12.1 12.1 0 0 0-.71-.03c-1.22 0-3.51-.02-3.51 1.38 0 .93 1.07 1.19 1.84 1.19.71 0 2.28-.2 2.28-1.2v-1.23l.11-.1ZM386.34 398.66h-1.02v-4.24c0-1.11-.34-1.88-1.95-1.88-1.17 0-2.14.65-2.14 1.97v4.15h-1.02v-6.99h1.02v.88h.02c.48-.6 1.33-.99 2.23-.99 1.84 0 2.86.94 2.86 2.64v4.46ZM394.46 391.68l-3.16 7.74c-.41 1.01-1.14 1.63-2.02 1.63-.52 0-.95-.09-1.3-.28v-.96c.32.18.76.28 1.17.28.61 0 1.05-.49 1.42-1.43l-3.12-6.97h1.14l2.17 5 .3.88h.02l.29-.88 1.94-5h1.14Z" class="cls-1"/>
  <path d="M360.66 269.76v-1.08c0-3.99 1.93-7.67 5.04-10.18a12.82 12.82 0 0 0 4.7-11.48c-.66-5.88-5.41-10.62-11.28-11.28-4.78-.54-9.1 1.55-11.72 5a12.002 12.002 0 0 1-9.56 4.74h-.42c-3.82 0-7.32-1.89-9.68-4.89-.64-.81-1.37-1.54-2.18-2.18-3-2.36-4.89-5.86-4.89-9.68v-1.46c0-3.99 1.93-7.68 5.04-10.18 3.27-2.64 5.21-6.84 4.7-11.48-.66-5.88-5.41-10.62-11.29-11.28-4.78-.54-9.1 1.55-11.72 5a11.992 11.992 0 0 1-9.56 4.73h-.35c-3.82 0-7.36-1.75-9.63-4.74-2.59-3.42-6.85-5.5-11.57-5.01-5.94.6-10.77 5.38-11.43 11.31-.86 7.76 5.19 14.33 12.77 14.33 4.18 0 7.89-2 10.23-5.09 2.26-2.99 5.81-4.73 9.56-4.73h.41c3.82 0 7.33 1.88 9.69 4.89.63.81 1.37 1.54 2.18 2.18 3.01 2.36 4.89 5.86 4.89 9.69v1.46c0 3.99-1.93 7.68-5.04 10.18a12.82 12.82 0 0 0-4.7 11.48c.66 5.87 5.41 10.62 11.28 11.28 4.78.54 9.1-1.55 11.72-5 2.27-2.99 5.81-4.74 9.56-4.74h.35c3.89 0 7.39 1.88 9.75 4.89.64.81 1.37 1.54 2.18 2.18 3.01 2.36 4.89 5.86 4.89 9.68v1.46c0 3.99-1.93 7.67-5.04 10.18-3.27 2.64-5.22 6.84-4.7 11.47.66 5.88 5.41 10.64 11.3 11.3 7.76.86 14.33-5.19 14.33-12.77 0-4.05-1.87-7.65-4.8-10-3.1-2.5-5.03-6.18-5.03-10.17M330.4 288.44c-.66-5.88-5.41-10.62-11.28-11.28-4.78-.54-9.09 1.55-11.72 5a11.992 11.992 0 0 1-9.56 4.73h-.42c-3.82 0-7.32-1.88-9.68-4.89-.64-.81-1.37-1.54-2.18-2.18-3-2.36-4.89-5.86-4.89-9.68v-1.46c0-4 1.93-7.68 5.04-10.18a12.82 12.82 0 0 0 4.7-11.48c-.66-5.88-5.41-10.62-11.29-11.28-4.7-.53-8.96 1.48-11.59 4.83-2.4 3.05-6.01 4.9-9.9 4.9s-7.5-1.85-9.9-4.9c-2.63-3.35-6.89-5.37-11.59-4.83-5.88.66-10.63 5.42-11.29 11.3-.52 4.65 1.45 8.86 4.73 11.49 3.12 2.5 5.06 6.19 5.06 10.19v1.01c0 4-1.94 7.68-5.06 10.18a12.843 12.843 0 0 0-4.74 11.49c.65 5.89 5.41 10.66 11.3 11.31 7.76.86 14.33-5.19 14.33-12.77 0-4.05-1.87-7.66-4.8-10.01-3.13-2.52-5.08-6.22-5.08-10.24v-1c0-3.98 1.93-7.65 5.04-10.14.73-.58 1.39-1.24 1.98-1.97 2.51-3.1 6.18-5.03 10.17-5.03h.04c3.82 0 7.33 1.88 9.69 4.89.64.81 1.37 1.54 2.18 2.18 3.01 2.36 4.89 5.86 4.89 9.68v1.46c0 3.99-1.93 7.68-5.04 10.18a12.82 12.82 0 0 0-4.7 11.48c.66 5.88 5.41 10.62 11.28 11.29 4.78.54 9.1-1.55 11.72-5 2.27-2.99 5.81-4.74 9.56-4.74h.42c3.82 0 7.32 1.88 9.68 4.89.63.81 1.37 1.54 2.18 2.18 3.01 2.36 4.89 5.86 4.89 9.68v1.46c0 3.9-1.75 7.63-4.84 10.02-1.11.86-2.07 1.89-2.85 3.07-2.05 3.08-5.6 4.82-9.3 4.82s-7.23-1.79-9.28-4.87a12.817 12.817 0 0 0-11.96-5.66c-5.97.57-10.84 5.36-11.5 11.32-.86 7.76 5.19 14.33 12.77 14.33 4.07 0 7.7-1.89 10.05-4.85 2.11-2.65 5.22-4.32 8.61-4.32h2.41c3.4 0 6.68 1.48 8.76 4.16 2.53 3.28 6.6 5.3 11.13 4.96 6.09-.44 11.13-5.27 11.81-11.34.52-4.64-1.43-8.84-4.7-11.47-3.11-2.51-5.04-6.19-5.04-10.18v-1.07c0-4 1.93-7.68 5.04-10.19a12.82 12.82 0 0 0 4.7-11.48" class="cls-2"/>
  <path d="M267.54 240.57c-2.39 3.06-6.01 4.9-9.9 4.9s-7.5-1.84-9.9-4.9a12.819 12.819 0 0 0-11.59-4.83c-5.88.66-10.63 5.42-11.28 11.3-.52 4.65 1.45 8.86 4.74 11.49 3.12 2.5 5.06 6.19 5.06 10.19v1.01c0 4-1.94 7.68-5.06 10.18a12.811 12.811 0 0 0-4.74 11.48c.65 5.89 5.41 10.66 11.3 11.31 7.76.86 14.33-5.19 14.33-12.78 0-4.05-1.87-7.65-4.8-10.01-3.13-2.51-5.08-6.22-5.08-10.23v-1.01c0-3.98 1.93-7.65 5.04-10.14.73-.58 1.39-1.24 1.98-1.97 2.51-3.1 6.19-5.03 10.17-5.03h.04c3.82 0 7.32 1.88 9.68 4.89.64.81 1.37 1.54 2.18 2.18 3.01 2.36 4.89 5.86 4.89 9.68v1.46c0 3.99-1.93 7.68-5.04 10.18a12.82 12.82 0 0 0-4.7 11.48c.66 5.88 5.41 10.62 11.29 11.28 4.78.54 9.09-1.55 11.71-5 2.27-2.99 5.81-4.74 9.56-4.74h.42c3.82 0 7.32 1.88 9.68 4.89.63.81 1.37 1.55 2.18 2.18 3 2.36 4.89 5.86 4.89 9.68v1.46c0 3.9-1.75 7.63-4.84 10.02-1.11.86-2.07 1.89-2.85 3.07-2.05 3.08-5.6 4.82-9.3 4.82s-7.23-1.79-9.28-4.87c-2.52-3.77-6.98-6.14-11.96-5.66-5.97.58-10.84 5.36-11.5 11.32-.86 7.76 5.19 14.33 12.77 14.33 4.07 0 7.7-1.89 10.05-4.85 2.11-2.65 5.22-4.32 8.61-4.32h2.41c3.4 0 6.68 1.48 8.75 4.16 2.53 3.28 6.61 5.3 11.14 4.96 6.09-.44 11.13-5.27 11.81-11.34.52-4.63-1.43-8.83-4.7-11.47-3.11-2.51-5.04-6.19-5.04-10.18v-1.07c0-4 1.93-7.68 5.04-10.19a12.82 12.82 0 0 0 4.7-11.48c-.66-5.88-5.41-10.63-11.28-11.28-4.78-.54-9.1 1.55-11.72 5a12.002 12.002 0 0 1-9.56 4.74h-.42c-3.82 0-7.32-1.88-9.68-4.89-.64-.81-1.37-1.54-2.18-2.18-3.01-2.36-4.89-5.87-4.89-9.69v-1.46c0-3.99 1.93-7.67 5.04-10.19 3.27-2.64 5.22-6.84 4.7-11.47-.66-5.88-5.41-10.63-11.29-11.29-.5-.06-1-.08-1.49-.08-4.1 0-7.75 1.93-10.1 4.92" class="cls-1"/>
  <g style="clip-path:url(#clippath)">
    <path d="m285.47 235.21 16.66 15.89-62.6 65.62-15.17-14.47v-67.04h61.11zM239.528 316.749l62.598-65.62 14.61 13.936-62.6 65.62z" class="cls-1"/>
    <path d="m316.74 265.03 14.19 13.54v.83l-62.1 65.1h-.17l-14.52-13.85 62.6-65.62z" class="cls-1"/>
    <path d="m330.92 308.64-34.19 35.86h-27.9l62.09-65.1v29.24z" class="cls-1"/>
    <path d="m330.92 337.89-6.3 6.61h-27.89l34.19-35.86v29.25zM324.62 344.5l6.31-6.61v6.61h-6.31z" class="cls-1"/>
  </g>
</svg>